<?xml version="1.0" encoding="UTF-8" standalone="no"?>
<svg
   xmlns:dc="http://purl.org/dc/elements/1.1/"
   xmlns:cc="http://creativecommons.org/ns#"
   xmlns:rdf="http://www.w3.org/1999/02/22-rdf-syntax-ns#"
   xmlns:svg="http://www.w3.org/2000/svg"
   xmlns="http://www.w3.org/2000/svg"
   xmlns:sodipodi="http://sodipodi.sourceforge.net/DTD/sodipodi-0.dtd"
   xmlns:inkscape="http://www.inkscape.org/namespaces/inkscape"
   inkscape:version="1.0 (4035a4fb49, 2020-05-01)"
   sodipodi:docname="WhiteKnob.svg"
   xml:space="preserve"
   enable-background="new 0 0 17.85552 17.85938"
   viewBox="0 0 19.993175 19.956924"
   height="19.956924"
   width="19.993176"
   y="0px"
   x="0px"
   id="svg111794"
   version="1.0"><metadata
   id="metadata15"><rdf:RDF><cc:Work
       rdf:about=""><dc:format>image/svg+xml</dc:format><dc:type
         rdf:resource="http://purl.org/dc/dcmitype/StillImage" /><dc:title></dc:title></cc:Work></rdf:RDF></metadata><defs
   id="defs13">
	
	
	
</defs><sodipodi:namedview
   units="px"
   inkscape:current-layer="svg111794"
   inkscape:window-maximized="1"
   inkscape:window-y="-8"
   inkscape:window-x="1912"
   inkscape:cy="11.455517"
   inkscape:cx="25.810737"
   inkscape:zoom="17.18337"
   showgrid="false"
   id="namedview11"
   inkscape:window-height="1017"
   inkscape:window-width="1920"
   inkscape:pageshadow="2"
   inkscape:pageopacity="0"
   guidetolerance="10"
   gridtolerance="10"
   objecttolerance="10"
   borderopacity="1"
   bordercolor="#666666"
   pagecolor="#ffffff"
   inkscape:document-rotation="0"
   fit-margin-top="0"
   fit-margin-left="0"
   fit-margin-right="0"
   fit-margin-bottom="0" />
<path
   opacity="0.99"
   fill="#ededed"
   enable-background="new    "
   d="M 8.6785313,1.4513887 H 11.256068 V 6.9422335 C 11.256068,7.309273 10.958533,7.6068082 10.591494,7.6068082 H 9.343106 C 8.9760666,7.6068082 8.6785313,7.309273 8.6785313,6.9422335 Z"
   id="path2"
   style="font-variation-settings:normal;opacity:0.99;vector-effect:none;fill:#1a7adf;fill-opacity:1;stroke-width:0.757576;stroke-linecap:butt;stroke-linejoin:miter;stroke-miterlimit:4;stroke-dasharray:none;stroke-dashoffset:0;stroke-opacity:1;stop-color:#000000" /><path
   d="M 9.6845832,0.00407555 C 9.3484746,0.01426495 9.0126498,0.04410103 8.6787238,0.08805993 V 0.08024743 C 8.4990746,0.10422121 8.3239776,0.14258151 8.1474738,0.17595055 8.0582054,0.19263057 7.9687725,0.20565282 7.8798956,0.22477867 7.7152598,0.26056897 7.5550678,0.3059982 7.3935675,0.34977867 7.2560702,0.38666682 7.1175911,0.42020495 6.9814582,0.46305993 6.8611762,0.50129069 6.744249,0.54740723 6.6259894,0.59001305 6.4560562,0.65068005 6.287238,0.71126715 6.12013,0.7814193 6.036571,0.81675584 5.9564148,0.85717704 5.8740363,0.89470055 5.6761351,0.98419672 5.4790727,1.0748571 5.2861456,1.1779037 5.2508826,1.1968496 5.2176374,1.2190956 5.18263,1.2384505 4.9535159,1.3643955 4.7275964,1.4975016 4.5068488,1.6427474 4.2883182,1.7865345 4.0714842,1.9351282 3.8623175,2.0978255 L 3.87013,2.105638 C 3.1895727,2.6364126 2.5823194,3.2528249 2.0595832,3.9396224 L 2.0478644,3.9298568 C -0.94457746,7.8439619 -0.66023866,13.458082 2.9189582,17.037279 5.3910284,19.509349 8.8357558,20.408788 12.02052,19.746263 12.328066,19.682284 12.633017,19.605097 12.934583,19.511888 13.036013,19.480837 13.133382,19.440586 13.233411,19.406419 13.428685,19.339185 13.623817,19.273224 13.815442,19.193529 13.987625,19.122432 14.15217,19.039445 14.319348,18.959154 14.436497,18.90253 14.555591,18.852655 14.670911,18.791185 14.945873,18.645602 15.212716,18.486342 15.471692,18.316576 18.192328,16.533114 19.993176,13.461186 19.993176,9.965013 19.993176,4.8746711 16.180722,0.68383266 11.256848,0.06852867 V 0.0861068 C 10.735048,0.01956715 10.209679,-0.01184305 9.6845832,0.00407555 Z M 9.8291144,1.4708724 C 12.057311,1.4285151 14.29776,2.255924 15.999036,3.9572005 19.324181,7.2823452 19.324085,12.673167 15.999036,15.998216 15.583405,16.413847 15.135221,16.77829 14.663098,17.090013 14.661138,17.091296 14.6592,17.092637 14.657239,17.093919 14.430665,17.243244 14.198736,17.378661 13.961926,17.504076 13.89989,17.536679 13.835401,17.564767 13.772473,17.595872 13.601807,17.680865 13.429757,17.763286 13.254895,17.836107 13.092914,17.902988 12.92563,17.960754 12.758802,18.017747 12.672937,18.047372 12.587576,18.080793 12.500989,18.107591 12.246608,18.185392 11.987536,18.252809 11.723645,18.30681 11.169382,18.42023 10.596593,18.480638 10.008802,18.480638 5.3064728,18.480638 1.4931769,14.66749 1.4931769,9.965013 1.4931769,7.0670074 2.946313,4.5153454 5.1591925,2.980638 5.1997179,2.9526751 5.2393907,2.923837 5.2802863,2.8966536 5.4349487,2.793299 5.5933021,2.6969744 5.7548956,2.6036849 5.8239315,2.5640748 5.8939979,2.5259742 5.96388,2.4884505 6.1072426,2.410966 6.253215,2.3371173 6.40138,2.2677474 6.4966731,2.2234753 6.5919565,2.1813572 6.6884894,2.1407942 6.80631,2.0908544 6.9254479,2.042946 7.0459113,1.9982162 7.1811485,1.9484876 7.3170146,1.9021932 7.4541144,1.8595443 7.5467009,1.8304368 7.6394929,1.8035227 7.7334113,1.777513 7.9100501,1.7291293 8.0877842,1.6854193 8.2666144,1.6486068 8.3120367,1.6391391 8.3576491,1.6300063 8.4033332,1.621263 8.8741978,1.5323256 9.3516826,1.4799483 9.8291144,1.4708724 Z"
   style="opacity:0.4;fill:#ffffff;stroke-width:0.81103"
   id="path4" />
</svg>
